<?xml version="1.0" encoding="utf-8"?>
<!DOCTYPE svg PUBLIC "-//W3C//DTD SVG 1.1//EN" "http://www.w3.org/Graphics/SVG/1.1/DTD/svg11.dtd">
<svg version="1.1" id="Layer_1" xmlns="http://www.w3.org/2000/svg" xmlns:xlink="http://www.w3.org/1999/xlink" x="0px" y="0px"
	 width="19px" height="17px" viewBox="0 0 19 17" enable-background="new 0 0 19 17" xml:space="preserve">
<path fill="#9B9B9B" d="M17.304,14.935l-4.95-4.844c0.689-0.945,1.102-2.106,1.102-3.363C13.455,3.569,10.886,1,7.727,1
	C4.569,1,2,3.569,2,6.728s2.569,5.728,5.727,5.728c1.195,0,2.305-0.369,3.225-0.998l4.952,4.847L17.304,14.935z M4,6.728
	C4,4.672,5.672,3,7.727,3c2.056,0,3.728,1.672,3.728,3.728c0,0.913-0.343,1.74-0.891,2.389l-0.511,0.5
	c-0.64,0.517-1.442,0.839-2.327,0.839C5.672,10.455,4,8.783,4,6.728z"/>
</svg>
