<?xml version="1.0" encoding="utf-8"?>
<!-- Generator: Adobe Illustrator 16.0.0, SVG Export Plug-In . SVG Version: 6.00 Build 0)  -->
<!DOCTYPE svg PUBLIC "-//W3C//DTD SVG 1.1//EN" "http://www.w3.org/Graphics/SVG/1.1/DTD/svg11.dtd">
<svg version="1.1" id="Layer_1" xmlns="http://www.w3.org/2000/svg" xmlns:xlink="http://www.w3.org/1999/xlink" x="0px" y="0px"
	 width="591.776px" height="210.5px" viewBox="103.224 201 591.776 210.5" enable-background="new 103.224 201 591.776 210.5"
	 xml:space="preserve">
<g>
	<g>
		<path fill="#FE0000" stroke="#EC1C24" stroke-width="0.5" stroke-miterlimit="10" d="M378.84,203.568
			c-56.232,0-102.168,45.936-102.168,102.168s45.936,102.168,102.168,102.168c56.232,0,102.168-45.937,102.168-102.168
			S435.072,203.568,378.84,203.568z M378.84,399.456c-51.744,0-93.984-41.976-93.984-93.984s41.976-93.984,93.984-93.984
			c51.744,0,93.984,41.976,93.984,93.984S430.32,399.456,378.84,399.456z"/>
		<path fill="#FE0000" stroke="#EC1C24" stroke-width="0.5" stroke-miterlimit="10" d="M185.856,295.968
			c-37.224-6.6-65.472-14.52-65.472-41.448c0-26.4,24.552-42.768,58.608-42.768c28.512,0,51.744,12.144,64.944,29.568l7.128-4.224
			c-14.52-19.8-40.128-33.528-71.808-33.528c-39.072,0-67.056,19.536-67.056,50.952c0,32.208,31.416,42.24,72.864,49.368
			c37.752,6.6,66.528,16.631,66.528,47.255c0,29.832-27.984,48.049-67.056,48.049c-33,0-59.664-15.312-73.92-36.96l-7.392,4.487
			c15.576,24.288,44.616,40.92,80.784,40.92c43.824,0,75.504-21.384,75.504-56.496C259.512,315.24,227.832,303.36,185.856,295.968z"
			/>
	</g>
	<g>
		<g>
			<g>
				<path fill="#FE0000" stroke="#EC1C24" stroke-width="0.5" stroke-miterlimit="10" d="M515.855,219.408h0.265l0,0l79.464,186.12
					h8.976l78.937-186.12h0.264v186.12h8.712V205.944h-13.2l-78.936,187.968h-0.264l0,0L520.08,205.944h-12.408v199.32h8.184
					V219.408z"/>
			</g>
		</g>
	</g>
</g>
</svg>
